<svg xmlns="http://www.w3.org/2000/svg" viewBox="0 0 3485.03 1096.55"><g id="レイヤー_2" data-name="レイヤー 2"><g id="レイヤー_1-2" data-name="レイヤー 1"><path d="M2067.91,1096.55c-16.63-3.89-33.33-7.52-49.88-11.7-109.76-27.73-177.41-100.22-210.31-204.79-36-114.48-32.78-230,9.55-342.41,51.48-136.69,195.57-217.23,344.81-197.43,77,10.22,143.71,38.19,192.28,106.21-13.4-51.21,26.87-72.5,52.16-101.41,20.8-23.77,43.5-45.89,70.41-74V304c0,167.31,1.58,334.65-.73,501.93-1,73.1,21.3,132.71,109.31,159.71v125.18c-91.26-14.77-165.32-50-199.9-146.63-7.66,10.85-13.06,18.58-18.55,26.26-46.46,65-108.53,106-187.46,121.18-4.47.86-8.63,3.28-12.94,5ZM2355,715.05c1.63-54.76-7.35-109-33.91-159.85C2281.5,479.46,2203.83,436.05,2118,442.57c-79.22,6-142.63,57.57-168.38,140.77-26.26,84.83-27.87,171.08-5,257,12.74,47.77,35.53,90,79.11,117.56,93.21,58.92,224.9,30.93,286.25-60.42C2346.84,842.61,2355.65,780.93,2355,715.05Z"/><path d="M3485,1081.78H3346.77v-30.41c0-159.1.37-318.21-.38-477.31a358.38,358.38,0,0,0-8.56-75.41c-14.61-65.86-52.49-99.63-119.33-109.81-102.89-15.67-212.4,36.32-265.19,125.58-19.1,32.29-23.64,67.73-23.68,104.14q-.23,214.05-.06,428.11v30.85h-137c-.43-7.62-1.27-15.47-1.27-23.31-.07-200.11-.32-400.22.58-600.33.06-12.17,6.45-27,14.87-36C2844.28,378,2883.6,339.78,2927.18,296V409c25.88-24.09,46.69-47.32,71.2-65.62,105.08-78.47,221.67-91.19,343.34-49.29,86.25,29.71,122.69,101.13,138,185.81,1.28,7.07,3.51,14,5.3,20.95Z"/><path d="M1426,1096.55c-15.67-3.89-31.6-7-47-11.8-75-23.56-113.51-78.2-125.12-152.57a826.23,826.23,0,0,1-9.37-119.89c-1.15-127.1-.42-254.23-.42-381.34V401.72h-102.9c36.44-36.8,68.24-69.28,100.69-101.11,3.42-3.35,10.67-3.91,16.15-3.92q165.32-.24,330.65.08c2.36,0,4.71,1,8.55,1.92v102H1382.4v28.54q0,206.67.15,413.33a364,364,0,0,0,3.4,46.52c8.67,66.08,50.43,101.08,116.6,96.12,32.47-2.44,64.7-8.17,98.77-12.64,7.33,31.27,14.94,63.71,23.45,100l-104.94,24Z"/><path d="M739.67,1096.55c-4.42-1.58-8.72-3.92-13.27-4.62C637.89,1078.3,582,1025.3,567.71,937.54a723.62,723.62,0,0,1-9.49-110.06c-1.1-132.06-.43-264.14-.43-396.21V401.72H453.38c36.5-36.78,68.44-69.33,101-101.21,3.41-3.34,10.68-3.82,16.17-3.83q164.13-.29,328.27,0c3.95,0,7.91,1.22,12.23,1.92V401.73H697.27c-.48,10.54-1.16,18.53-1.16,26.53q-.11,212.87.1,425.74a255.28,255.28,0,0,0,3.41,39.11c9.93,63.09,51,96.58,115.24,92.09,32.46-2.27,64.66-8.17,99.36-12.74,7.31,30.74,15,63.18,23.83,100.27l-109.5,23.82Z"/><path d="M139.31,1077.63H3.13V1049.5c0-197.59.24-395.18-.4-592.77-.06-17.93,5.05-30.45,17.94-42.83,39-37.47,76.69-76.25,118.64-118.27Z"/><path d="M1242.29,151V0H1387V151Z"/><path d="M142.85,151.14H0V.42H142.85Z"/><path d="M698.8,151.24H554.66V.36H698.8Z"/></g></g></svg>